<svg width="24" height="24" viewBox="0 0 24 24" fill="none" xmlns="http://www.w3.org/2000/svg">
<path d="M11.9995 12C14.7609 12 16.9995 9.76142 16.9995 7C16.9995 4.23858 14.7609 2 11.9995 2C9.23809 2 6.99951 4.23858 6.99951 7C6.99951 9.76142 9.23809 12 11.9995 12Z" stroke="#F72D57" stroke-width="2"/>
<path d="M16.9996 14H17.3516C18.0827 14.0002 18.7885 14.2674 19.3365 14.7513C19.8845 15.2352 20.2369 15.9026 20.3276 16.628L20.7186 19.752C20.7537 20.0334 20.7287 20.3191 20.645 20.5901C20.5613 20.8611 20.4209 21.1112 20.2332 21.3238C20.0455 21.5364 19.8147 21.7066 19.5561 21.8232C19.2976 21.9398 19.0172 22.0001 18.7336 22H5.26557C4.98195 22.0001 4.70157 21.9398 4.44302 21.8232C4.18447 21.7066 3.95367 21.5364 3.76595 21.3238C3.57822 21.1112 3.43786 20.8611 3.35418 20.5901C3.27049 20.3191 3.2454 20.0334 3.28057 19.752L3.67057 16.628C3.76127 15.9022 4.11399 15.2346 4.6624 14.7506C5.21082 14.2667 5.91715 13.9997 6.64857 14H6.99957" stroke="#F72D57" stroke-width="2" stroke-linecap="round" stroke-linejoin="round"/>
</svg>
