<svg width="27" height="16" viewBox="0 0 27 16" fill="none" xmlns="http://www.w3.org/2000/svg">
<path d="M25.9995 9C26.5518 9 26.9995 8.55228 26.9995 8C26.9995 7.44772 26.5518 7 25.9995 7V9ZM0.292404 7.29289C-0.0981197 7.68342 -0.0981197 8.31658 0.292404 8.70711L6.65637 15.0711C7.04689 15.4616 7.68006 15.4616 8.07058 15.0711C8.4611 14.6805 8.4611 14.0474 8.07058 13.6569L2.41372 8L8.07058 2.34315C8.4611 1.95262 8.4611 1.31946 8.07058 0.928932C7.68006 0.538408 7.04689 0.538408 6.65637 0.928932L0.292404 7.29289ZM25.9995 7L0.999512 7V9L25.9995 9V7Z" fill="black"/>
</svg>
