<svg width="44" height="44" viewBox="0 0 44 44" fill="none" xmlns="http://www.w3.org/2000/svg">
<path d="M19.4397 37.8589C20.9307 37.8589 22.1394 36.6626 22.1394 35.1868C22.1394 33.711 20.9307 32.5147 19.4397 32.5147C17.9487 32.5147 16.7401 33.711 16.7401 35.1868C16.7401 36.6626 17.9487 37.8589 19.4397 37.8589Z" fill="black"/>
<path d="M32.0383 37.8589C33.5293 37.8589 34.738 36.6626 34.738 35.1868C34.738 33.711 33.5293 32.5147 32.0383 32.5147C30.5473 32.5147 29.3386 33.711 29.3386 35.1868C29.3386 36.6626 30.5473 37.8589 32.0383 37.8589Z" fill="black"/>
<path d="M23.9392 23.6076H27.5388V18.2812H32.9202V14.7183H27.5388V9.40973H23.9392V14.7183H18.5579V18.2812H23.9392V23.6076Z" fill="black"/>
<path d="M18.5399 30.7333H32.9382C33.3008 30.7322 33.6545 30.6228 33.9532 30.4193C34.2519 30.2159 34.4815 29.9279 34.612 29.5932L39.7054 16.4819H35.8539L31.6964 27.1704H19.7457L11.6647 7.9846C11.3907 7.33449 10.9281 6.77936 10.3355 6.38936C9.74286 5.99936 9.04672 5.79199 8.33506 5.79346H4.14154V9.35629H8.33506L16.8841 29.6288C17.0191 29.9541 17.2484 30.2326 17.543 30.4291C17.8377 30.6257 18.1846 30.7315 18.5399 30.7333Z" fill="black"/>
</svg>
