<svg width="44" height="44" viewBox="0 0 44 44" fill="none" xmlns="http://www.w3.org/2000/svg">
<path d="M19.7127 38.022C21.1987 38.022 22.4033 36.8257 22.4033 35.3499C22.4033 33.8741 21.1987 32.6778 19.7127 32.6778C18.2266 32.6778 17.022 33.8741 17.022 35.3499C17.022 36.8257 18.2266 38.022 19.7127 38.022Z" fill="black"/>
<path d="M32.2692 38.022C33.7552 38.022 34.9599 36.8257 34.9599 35.3499C34.9599 33.8741 33.7552 32.6778 32.2692 32.6778C30.7832 32.6778 29.5785 33.8741 29.5785 35.3499C29.5785 36.8257 30.7832 38.022 32.2692 38.022Z" fill="black"/>
<path d="M24.1971 23.7707H27.7847V18.4443H33.1482V14.8814H27.7847V9.57281H24.1971V14.8814H18.8337V18.4443H24.1971V23.7707Z" fill="black"/>
<path d="M18.8158 30.8963H33.1661C33.5274 30.8953 33.88 30.7859 34.1777 30.5824C34.4754 30.379 34.7043 30.091 34.8343 29.7562L39.9108 16.645H36.0721L31.9284 27.3335H20.0176L11.9635 8.14769C11.6904 7.49758 11.2294 6.94245 10.6387 6.55245C10.0481 6.16245 9.35425 5.95508 8.64495 5.95655H4.46541V9.51938H8.64495L17.1655 29.7919C17.3 30.1172 17.5286 30.3957 17.8222 30.5922C18.1159 30.7888 18.4616 30.8946 18.8158 30.8963Z" fill="black"/>
</svg>
