<svg width="44" height="44" viewBox="0 0 44 44" fill="none" xmlns="http://www.w3.org/2000/svg">
<path d="M19.154 38.022C20.645 38.022 21.8537 36.8257 21.8537 35.3499C21.8537 33.8741 20.645 32.6778 19.154 32.6778C17.663 32.6778 16.4543 33.8741 16.4543 35.3499C16.4543 36.8257 17.663 38.022 19.154 38.022Z" fill="black"/>
<path d="M31.7526 38.022C33.2436 38.022 34.4523 36.8257 34.4523 35.3499C34.4523 33.8741 33.2436 32.6778 31.7526 32.6778C30.2616 32.6778 29.0529 33.8741 29.0529 35.3499C29.0529 36.8257 30.2616 38.022 31.7526 38.022Z" fill="black"/>
<path d="M23.6535 23.7707H27.2531V18.4443H32.6345V14.8814H27.2531V9.57281H23.6535V14.8814H18.2722V18.4443H23.6535V23.7707Z" fill="black"/>
<path d="M18.2541 30.8963H32.6525C33.015 30.8953 33.3688 30.7859 33.6675 30.5824C33.9661 30.379 34.1958 30.091 34.3263 29.7562L39.4197 16.645H35.5681L31.4106 27.3335H19.46L11.3789 8.14769C11.1049 7.49758 10.6424 6.94245 10.0498 6.55245C9.45713 6.16245 8.76099 5.95508 8.04932 5.95655H3.8558V9.51938H8.04932L16.5983 29.7919C16.7334 30.1172 16.9626 30.3957 17.2573 30.5922C17.552 30.7888 17.8988 30.8946 18.2541 30.8963Z" fill="black"/>
</svg>
