<svg width="44" height="44" viewBox="0 0 44 44" fill="none" xmlns="http://www.w3.org/2000/svg">
<path d="M19.0112 38.022C20.5021 38.022 21.7108 36.8257 21.7108 35.3499C21.7108 33.8741 20.5021 32.6778 19.0112 32.6778C17.5202 32.6778 16.3115 33.8741 16.3115 35.3499C16.3115 36.8257 17.5202 38.022 19.0112 38.022Z" fill="black"/>
<path d="M31.6097 38.022C33.1007 38.022 34.3094 36.8257 34.3094 35.3499C34.3094 33.8741 33.1007 32.6778 31.6097 32.6778C30.1187 32.6778 28.91 33.8741 28.91 35.3499C28.91 36.8257 30.1187 38.022 31.6097 38.022Z" fill="black"/>
<path d="M23.5106 23.7707H27.1102V18.4443H32.4916V14.8814H27.1102V9.57281H23.5106V14.8814H18.1293V18.4443H23.5106V23.7707Z" fill="black"/>
<path d="M18.1113 30.8963H32.5096C32.8721 30.8953 33.2259 30.7859 33.5246 30.5824C33.8233 30.379 34.0529 30.091 34.1834 29.7562L39.2768 16.645H35.4253L31.2677 27.3335H19.3171L11.2361 8.14769C10.9621 7.49758 10.4995 6.94245 9.90688 6.55245C9.31424 6.16245 8.61811 5.95508 7.90644 5.95655H3.71292V9.51938H7.90644L16.4554 29.7919C16.5905 30.1172 16.8198 30.3957 17.1144 30.5922C17.4091 30.7888 17.7559 30.8946 18.1113 30.8963Z" fill="black"/>
</svg>
