<svg width="44" height="44" viewBox="0 0 44 44" fill="none" xmlns="http://www.w3.org/2000/svg">
<path d="M19.5826 37.8589C21.0736 37.8589 22.2823 36.6626 22.2823 35.1868C22.2823 33.711 21.0736 32.5147 19.5826 32.5147C18.0916 32.5147 16.8829 33.711 16.8829 35.1868C16.8829 36.6626 18.0916 37.8589 19.5826 37.8589Z" fill="black"/>
<path d="M32.1811 37.8589C33.6721 37.8589 34.8808 36.6626 34.8808 35.1868C34.8808 33.711 33.6721 32.5147 32.1811 32.5147C30.6901 32.5147 29.4815 33.711 29.4815 35.1868C29.4815 36.6626 30.6901 37.8589 32.1811 37.8589Z" fill="black"/>
<path d="M24.0821 23.6076H27.6817V18.2812H33.063V14.7183H27.6817V9.40973H24.0821V14.7183H18.7007V18.2812H24.0821V23.6076Z" fill="black"/>
<path d="M18.6827 30.7333H33.081C33.4436 30.7322 33.7974 30.6228 34.096 30.4193C34.3947 30.2159 34.6243 29.9279 34.7548 29.5932L39.8483 16.4819H35.9967L31.8392 27.1704H19.8886L11.8075 7.9846C11.5335 7.33449 11.071 6.77936 10.4783 6.38936C9.88569 5.99936 9.18955 5.79199 8.47788 5.79346H4.28437V9.35629H8.47788L17.0269 29.6288C17.1619 29.9541 17.3912 30.2326 17.6859 30.4291C17.9805 30.6257 18.3274 30.7315 18.6827 30.7333Z" fill="black"/>
</svg>
