<svg width="44" height="44" viewBox="0 0 44 44" fill="none" xmlns="http://www.w3.org/2000/svg">
<path d="M19.4397 38.022C20.9307 38.022 22.1394 36.8257 22.1394 35.3499C22.1394 33.8741 20.9307 32.6778 19.4397 32.6778C17.9487 32.6778 16.7401 33.8741 16.7401 35.3499C16.7401 36.8257 17.9487 38.022 19.4397 38.022Z" fill="black"/>
<path d="M32.0383 38.022C33.5293 38.022 34.738 36.8257 34.738 35.3499C34.738 33.8741 33.5293 32.6778 32.0383 32.6778C30.5473 32.6778 29.3386 33.8741 29.3386 35.3499C29.3386 36.8257 30.5473 38.022 32.0383 38.022Z" fill="black"/>
<path d="M23.9392 23.7707H27.5388V18.4443H32.9202V14.8814H27.5388V9.57281H23.9392V14.8814H18.5579V18.4443H23.9392V23.7707Z" fill="black"/>
<path d="M18.5399 30.8963H32.9382C33.3008 30.8953 33.6545 30.7859 33.9532 30.5824C34.2519 30.379 34.4815 30.091 34.612 29.7562L39.7054 16.645H35.8539L31.6964 27.3335H19.7457L11.6647 8.14769C11.3907 7.49758 10.9281 6.94245 10.3355 6.55245C9.74286 6.16245 9.04672 5.95508 8.33506 5.95655H4.14154V9.51938H8.33506L16.8841 29.7919C17.0191 30.1172 17.2484 30.3957 17.543 30.5922C17.8377 30.7888 18.1846 30.8946 18.5399 30.8963Z" fill="black"/>
</svg>
