<svg width="44" height="44" viewBox="0 0 44 44" fill="none" xmlns="http://www.w3.org/2000/svg">
<path d="M19.154 37.8589C20.645 37.8589 21.8537 36.6626 21.8537 35.1868C21.8537 33.711 20.645 32.5147 19.154 32.5147C17.663 32.5147 16.4543 33.711 16.4543 35.1868C16.4543 36.6626 17.663 37.8589 19.154 37.8589Z" fill="black"/>
<path d="M31.7526 37.8589C33.2436 37.8589 34.4523 36.6626 34.4523 35.1868C34.4523 33.711 33.2436 32.5147 31.7526 32.5147C30.2616 32.5147 29.0529 33.711 29.0529 35.1868C29.0529 36.6626 30.2616 37.8589 31.7526 37.8589Z" fill="black"/>
<path d="M23.6535 23.6076H27.2531V18.2812H32.6345V14.7183H27.2531V9.40973H23.6535V14.7183H18.2722V18.2812H23.6535V23.6076Z" fill="black"/>
<path d="M18.2541 30.7333H32.6525C33.015 30.7322 33.3688 30.6228 33.6675 30.4193C33.9661 30.2159 34.1958 29.9279 34.3263 29.5932L39.4197 16.4819H35.5681L31.4106 27.1704H19.46L11.3789 7.9846C11.1049 7.33449 10.6424 6.77936 10.0498 6.38936C9.45713 5.99936 8.76099 5.79199 8.04932 5.79346H3.8558V9.35629H8.04932L16.5983 29.6288C16.7334 29.9541 16.9626 30.2326 17.2573 30.4291C17.552 30.6257 17.8988 30.7315 18.2541 30.7333Z" fill="black"/>
</svg>
