<svg width="44" height="44" viewBox="0 0 44 44" fill="none" xmlns="http://www.w3.org/2000/svg">
<path d="M19.0112 37.8589C20.5021 37.8589 21.7108 36.6626 21.7108 35.1868C21.7108 33.711 20.5021 32.5147 19.0112 32.5147C17.5202 32.5147 16.3115 33.711 16.3115 35.1868C16.3115 36.6626 17.5202 37.8589 19.0112 37.8589Z" fill="black"/>
<path d="M31.6097 37.8589C33.1007 37.8589 34.3094 36.6626 34.3094 35.1868C34.3094 33.711 33.1007 32.5147 31.6097 32.5147C30.1187 32.5147 28.91 33.711 28.91 35.1868C28.91 36.6626 30.1187 37.8589 31.6097 37.8589Z" fill="black"/>
<path d="M23.5106 23.6076H27.1102V18.2812H32.4916V14.7183H27.1102V9.40973H23.5106V14.7183H18.1293V18.2812H23.5106V23.6076Z" fill="black"/>
<path d="M18.1113 30.7333H32.5096C32.8721 30.7322 33.2259 30.6228 33.5246 30.4193C33.8233 30.2159 34.0529 29.9279 34.1834 29.5932L39.2768 16.4819H35.4253L31.2677 27.1704H19.3171L11.2361 7.9846C10.9621 7.33449 10.4995 6.77936 9.90688 6.38936C9.31424 5.99936 8.61811 5.79199 7.90644 5.79346H3.71292V9.35629H7.90644L16.4554 29.6288C16.5905 29.9541 16.8198 30.2326 17.1144 30.4291C17.4091 30.6257 17.7559 30.7315 18.1113 30.7333Z" fill="black"/>
</svg>
