<svg width="43" height="43" viewBox="0 0 43 43" fill="none" xmlns="http://www.w3.org/2000/svg">
<path d="M18.8125 37.625C20.2968 37.625 21.5 36.4218 21.5 34.9375C21.5 33.4532 20.2968 32.25 18.8125 32.25C17.3282 32.25 16.125 33.4532 16.125 34.9375C16.125 36.4218 17.3282 37.625 18.8125 37.625Z" fill="white"/>
<path d="M31.3542 37.625C32.8385 37.625 34.0417 36.4218 34.0417 34.9375C34.0417 33.4532 32.8385 32.25 31.3542 32.25C29.87 32.25 28.6667 33.4532 28.6667 34.9375C28.6667 36.4218 29.87 37.625 31.3542 37.625Z" fill="white"/>
<path d="M23.2917 23.2915H26.875V17.9345H32.2321V14.3511H26.875V9.01196H23.2917V14.3511H17.9346V17.9345H23.2917V23.2915Z" fill="white"/>
<path d="M17.9166 30.4583H32.2499C32.6108 30.4573 32.963 30.3472 33.2603 30.1426C33.5577 29.938 33.7862 29.6484 33.9162 29.3117L38.9866 16.125H35.1524L31.0137 26.875H19.117L11.0724 7.57876C10.7997 6.92491 10.3392 6.36659 9.74925 5.97434C9.15929 5.5821 8.46629 5.37353 7.75784 5.37501H3.58325V8.95834H7.75784L16.2683 29.3475C16.4027 29.6747 16.6309 29.9548 16.9243 30.1525C17.2176 30.3501 17.5629 30.4566 17.9166 30.4583Z" fill="white"/>
<rect x="0.5" y="0.5" width="42" height="42" stroke="white"/>
</svg>
