<svg width="24" height="24" viewBox="0 0 24 24" fill="none" xmlns="http://www.w3.org/2000/svg">
<path d="M20.952 3.04794C20.281 2.37696 19.3709 2 18.422 2C17.4731 2 16.563 2.37696 15.892 3.04794L3.93999 14.9999C3.53378 15.4062 3.2482 15.9171 3.11499 16.4759L2.01999 21.0779C1.99034 21.2026 1.99312 21.3328 2.02806 21.456C2.06301 21.5793 2.12895 21.6916 2.2196 21.7821C2.31025 21.8727 2.42258 21.9385 2.54589 21.9733C2.6692 22.0081 2.79937 22.0107 2.92399 21.9809L7.52499 20.8849C8.08418 20.7519 8.59548 20.4663 9.00199 20.0599L10.153 18.9089C10.0084 18.2544 9.96552 17.5815 10.026 16.9139L7.94099 18.9999C7.73099 19.2099 7.46699 19.3579 7.17799 19.4269L3.76199 20.2409L4.57499 16.8249C4.64399 16.5349 4.79199 16.2709 5.00199 16.0609L15 6.05994L17.94 8.99994L15.914 11.0259C16.5812 10.9664 17.2537 11.0092 17.908 11.1529L20.952 8.10894C21.623 7.43794 21.9999 6.52787 21.9999 5.57894C21.9999 4.63001 21.623 3.71995 20.952 3.04894V3.04794ZM16.952 4.10794C17.145 3.9149 17.3742 3.76177 17.6264 3.6573C17.8787 3.55282 18.149 3.49905 18.422 3.49905C18.695 3.49905 18.9653 3.55282 19.2175 3.6573C19.4698 3.76177 19.6989 3.9149 19.892 4.10794C20.085 4.30099 20.2382 4.53016 20.3426 4.78239C20.4471 5.03461 20.5009 5.30494 20.5009 5.57794C20.5009 5.85095 20.4471 6.12128 20.3426 6.3735C20.2382 6.62572 20.085 6.8549 19.892 7.04794L19 7.93894L16.06 4.99994L16.952 4.10894V4.10794ZM13.277 13.9759C13.3516 14.2345 13.3733 14.5054 13.3407 14.7725C13.3082 15.0397 13.222 15.2975 13.0875 15.5305C12.9529 15.7635 12.7728 15.967 12.5577 16.1288C12.3427 16.2906 12.0972 16.4073 11.836 16.4719L11.252 16.6169C11.1584 17.2158 11.1604 17.8257 11.258 18.4239L11.798 18.5539C12.0616 18.6174 12.3095 18.7339 12.5267 18.8961C12.7439 19.0584 12.9258 19.2631 13.0614 19.4979C13.1971 19.7327 13.2835 19.9925 13.3156 20.2618C13.3477 20.531 13.3247 20.8039 13.248 21.0639L13.061 21.6949C13.501 22.0809 14.001 22.3949 14.546 22.6169L15.039 22.0979C15.2258 21.9014 15.4507 21.745 15.6998 21.638C15.949 21.5311 16.2173 21.476 16.4885 21.476C16.7596 21.476 17.028 21.5311 17.2771 21.638C17.5263 21.745 17.7512 21.9014 17.938 22.0979L18.437 22.6239C18.9781 22.4037 19.4789 22.0951 19.919 21.7109L19.721 21.0249C19.6464 20.7663 19.6247 20.4953 19.6574 20.2282C19.69 19.961 19.7762 19.7032 19.9109 19.4701C20.0455 19.237 20.2258 19.0336 20.441 18.8718C20.6561 18.7101 20.9017 18.5935 21.163 18.5289L21.746 18.3839C21.8396 17.7851 21.8376 17.1752 21.74 16.5769L21.2 16.4469C20.9365 16.3833 20.6887 16.2668 20.4716 16.1045C20.2545 15.9422 20.0727 15.7375 19.9372 15.5027C19.8017 15.268 19.7153 15.0081 19.6833 14.7389C19.6513 14.4698 19.6743 14.1969 19.751 13.9369L19.937 13.3059C19.497 12.9183 18.9954 12.6067 18.453 12.3839L17.96 12.9019C17.7731 13.0986 17.5483 13.2552 17.299 13.3622C17.0497 13.4693 16.7813 13.5244 16.51 13.5244C16.2387 13.5244 15.9703 13.4693 15.721 13.3622C15.4717 13.2552 15.2468 13.0986 15.06 12.9019L14.562 12.3769C14.018 12.5969 13.518 12.9069 13.079 13.2899L13.277 13.9759V13.9759ZM16.5 18.9999C15.7 18.9999 15.05 18.3289 15.05 17.4999C15.05 16.6719 15.7 15.9999 16.5 15.9999C17.3 15.9999 17.95 16.6719 17.95 17.4999C17.95 18.3289 17.3 18.9999 16.5 18.9999Z" fill="#F72D57"/>
</svg>
