<svg width="25" height="24" viewBox="0 0 25 24" fill="none" xmlns="http://www.w3.org/2000/svg">
<path d="M13.2415 17.1429V10.2857H9.81295V12H11.5272V17.1429H8.95581V18.8572H15.813V17.1429H13.2415ZM12.3844 5.14288C12.1301 5.14288 11.8815 5.21829 11.6701 5.35956C11.4586 5.50084 11.2938 5.70164 11.1965 5.93658C11.0992 6.17151 11.0738 6.43002 11.1234 6.67943C11.173 6.92883 11.2954 7.15792 11.4752 7.33773C11.6551 7.51754 11.8841 7.64 12.1336 7.68961C12.383 7.73922 12.6415 7.71375 12.8764 7.61644C13.1113 7.51913 13.3121 7.35434 13.4534 7.1429C13.5947 6.93147 13.6701 6.68289 13.6701 6.4286C13.6701 6.0876 13.5346 5.76058 13.2935 5.51946C13.0524 5.27834 12.7254 5.14288 12.3844 5.14288Z" fill="#F72D57"/>
<path d="M12.3843 24C10.0109 24 7.69083 23.2962 5.71744 21.9776C3.74405 20.6591 2.20598 18.7849 1.29773 16.5922C0.389477 14.3995 0.151837 11.9867 0.614859 9.65892C1.07788 7.33115 2.22077 5.19295 3.899 3.51472C5.57723 1.83649 7.71543 0.693605 10.0432 0.230582C12.371 -0.232441 14.7838 0.0051994 16.9765 0.913451C19.1692 1.8217 21.0433 3.35977 22.3619 5.33316C23.6805 7.30655 24.3843 9.62663 24.3843 12C24.3843 15.1826 23.12 18.2348 20.8696 20.4853C18.6191 22.7357 15.5669 24 12.3843 24ZM12.3843 1.71429C10.35 1.71429 8.36132 2.31754 6.66985 3.44775C4.97837 4.57795 3.66002 6.18436 2.88152 8.06383C2.10302 9.9433 1.89933 12.0114 2.29621 14.0066C2.69308 16.0019 3.6727 17.8346 5.11118 19.2731C6.54967 20.7116 8.38241 21.6912 10.3776 22.0881C12.3729 22.485 14.441 22.2813 16.3205 21.5028C18.1999 20.7243 19.8063 19.4059 20.9365 17.7144C22.0667 16.023 22.67 14.0343 22.67 12C22.67 9.27206 21.5863 6.65585 19.6574 4.72691C17.7284 2.79796 15.1122 1.71429 12.3843 1.71429Z" fill="#F72D57"/>
</svg>
