<svg width="53" height="35" viewBox="0 0 53 35" fill="none" xmlns="http://www.w3.org/2000/svg">
<path d="M47 15L42.97 21L39 15H47Z" fill="black"/>
<mask id="mask0_114_1977" style="mask-type:alpha" maskUnits="userSpaceOnUse" x="0" y="0" width="35" height="35">
<circle cx="17.5" cy="17.5" r="17.5" fill="#D9D9D9"/>
</mask>
<g mask="url(#mask0_114_1977)">
<path d="M34 -2H1C0.447715 -2 0 -1.56181 0 -1.02128V35.1915C0 35.732 0.447715 36.1702 1 36.1702H34C34.5523 36.1702 35 35.732 35 35.1915V-1.02128C35 -1.56181 34.5523 -2 34 -2Z" fill="#FFEDB3"/>
<path d="M31 20.5104C31 27.267 24.9557 32.7445 17.5 32.7445C10.0441 32.7445 4 27.267 4 20.5104C4 13.7537 10.9358 8.27637 17.5 8.27637C24.0642 8.27637 31 13.7537 31 20.5104Z" fill="#F0F0F0"/>
<path d="M17.5 5.34033C9.90608 5.34033 3.75 11.2289 3.75 18.4929V23.9459C3.75 25.4269 5.00513 26.6276 6.5534 26.6276C8.10168 26.6276 9.3568 25.4269 9.3568 23.9459V21.7295V24.0736C9.3568 25.4842 10.5522 26.6276 12.0267 26.6276C13.5013 26.6276 14.6966 25.4842 14.6966 24.0736V21.7295V23.9459C14.6966 25.4269 15.9517 26.6276 17.5 26.6276C19.0458 26.6276 20.2994 25.4308 20.3034 23.953V24.0736C20.3034 25.4842 21.4987 26.6276 22.9732 26.6276C24.4477 26.6276 25.6432 25.4842 25.6432 24.0736V23.9459C25.6432 25.4269 26.8983 26.6276 28.4465 26.6276C29.995 26.6276 31.25 25.4269 31.25 23.9459V19.5668C31.25 19.5658 31.25 19.5646 31.25 19.5636V18.4929C31.25 11.2289 25.094 5.34033 17.5 5.34033Z" fill="#FCFCFC"/>
<path d="M9 19.015C10.1046 19.015 11 18.1386 11 17.0575C11 15.9765 10.1046 15.1001 9 15.1001C7.89543 15.1001 7 15.9765 7 17.0575C7 18.1386 7.89543 19.015 9 19.015Z" fill="#FFCEB9"/>
<path d="M26 19.015C27.1046 19.015 28 18.1386 28 17.0575C28 15.9765 27.1046 15.1001 26 15.1001C24.8954 15.1001 24 15.9765 24 17.0575C24 18.1386 24.8954 19.015 26 19.015Z" fill="#FFCEB9"/>
<path d="M11.375 16.5955C12.4105 16.5955 13.25 15.7739 13.25 14.7604C13.25 13.7469 12.4105 12.9253 11.375 12.9253C10.3395 12.9253 9.5 13.7469 9.5 14.7604C9.5 15.7739 10.3395 16.5955 11.375 16.5955Z" fill="#525151"/>
<path d="M12.1953 14.5058C11.8717 14.5058 11.6094 14.2491 11.6094 13.9324C11.6094 13.6156 11.8717 13.3589 12.1953 13.3589C12.5189 13.3589 12.7812 13.6156 12.7812 13.9324C12.7812 14.2491 12.5189 14.5058 12.1953 14.5058Z" fill="white"/>
<path d="M11.2578 15.194C11.0636 15.194 10.9062 15.04 10.9062 14.8499C10.9062 14.6599 11.0636 14.5059 11.2578 14.5059C11.452 14.5059 11.6094 14.6599 11.6094 14.8499C11.6094 15.04 11.452 15.194 11.2578 15.194Z" fill="white"/>
<path d="M23.875 16.5955C24.9105 16.5955 25.75 15.7739 25.75 14.7604C25.75 13.7469 24.9105 12.9253 23.875 12.9253C22.8395 12.9253 22 13.7469 22 14.7604C22 15.7739 22.8395 16.5955 23.875 16.5955Z" fill="#525151"/>
<path d="M24.6953 14.5058C24.3717 14.5058 24.1094 14.2491 24.1094 13.9324C24.1094 13.6156 24.3717 13.3589 24.6953 13.3589C25.0189 13.3589 25.2812 13.6156 25.2812 13.9324C25.2812 14.2491 25.0189 14.5058 24.6953 14.5058Z" fill="white"/>
<path d="M23.7578 15.194C23.5636 15.194 23.4062 15.04 23.4062 14.8499C23.4062 14.6599 23.5636 14.5059 23.7578 14.5059C23.952 14.5059 24.1094 14.6599 24.1094 14.8499C24.1094 15.04 23.952 15.194 23.7578 15.194Z" fill="white"/>
<path fill-rule="evenodd" clip-rule="evenodd" d="M17.6865 20.1558C17.2748 21.0087 16.5274 21.5632 15.8285 21.4619C14.9685 21.3373 14.5075 20.2673 14.7988 19.0721C15.09 17.8769 16.0232 17.0089 16.8832 17.1335C17.2239 17.1828 17.5019 17.3805 17.6954 17.6756C17.8884 17.3891 18.1627 17.1975 18.4973 17.149C19.3573 17.0245 20.2905 17.8925 20.5817 19.0877C20.873 20.283 20.412 21.353 19.552 21.4775C18.8488 21.5793 18.0966 21.0175 17.6865 20.1558Z" fill="#ED653B"/>
<path d="M14.939 17.1946C14.4521 16.8058 14.4481 16.0789 14.9307 15.6848L17.0742 13.9347C17.4437 13.633 17.9804 13.6317 18.3515 13.9315L20.5172 15.6816C21.005 16.0758 21.001 16.8087 20.5089 17.1977L18.3431 18.9099C17.975 19.2008 17.449 19.1993 17.0825 18.9067L14.939 17.1946Z" fill="#FFD500"/>
<g style="mix-blend-mode:multiply">
<path fill-rule="evenodd" clip-rule="evenodd" d="M20.8638 16.6155C20.0778 17.058 19.0112 17.3299 17.8364 17.3299C16.5387 17.3299 15.373 16.9982 14.5718 16.4712C14.5813 16.741 14.7038 17.0076 14.9389 17.1953L17.0824 18.9074C17.4489 19.2001 17.9749 19.2013 18.343 18.9104L20.5087 17.1984C20.704 17.044 20.8225 16.8355 20.8638 16.6155Z" fill="#FFD500" fill-opacity="0.5"/>
</g>
<path d="M18.2706 30.316C18.1342 30.3728 17.9795 30.4026 17.8221 30.4026H17.4133C17.2558 30.4026 17.1012 30.3728 16.9648 30.316L13.6135 28.9228C12.9855 28.6617 12.2081 29.018 12.254 29.5389C12.3791 30.9605 12.3766 32.0814 12.2519 33.503C12.2063 34.0234 12.9828 34.3787 13.6101 34.1179L17.0958 32.6689C17.2321 32.6121 17.3868 32.5823 17.5442 32.5823H17.6911C17.8486 32.5823 18.0033 32.6121 18.1396 32.6689L21.6422 34.125C22.2662 34.3843 23.0395 34.0342 22.9985 33.5162C22.8852 32.0846 22.88 30.9595 22.9942 29.5286C23.0355 29.0094 22.2607 28.6573 21.6352 28.9172L18.2706 30.316Z" fill="#ED653B"/>
<g style="mix-blend-mode:multiply">
<path fill-rule="evenodd" clip-rule="evenodd" d="M12.3466 31.521C12.346 32.1564 12.3142 32.7921 12.2519 33.5029C12.2063 34.0233 12.9828 34.3786 13.6101 34.1178L17.0958 32.6688C17.2321 32.612 17.3868 32.5822 17.5442 32.5822H17.6911C17.8486 32.5822 18.0033 32.612 18.1396 32.6688L21.6422 34.1249C22.2662 34.3843 23.0395 34.0341 22.9985 33.5161C22.9417 32.7999 22.9122 32.1606 22.911 31.521H12.3466Z" fill="#ED653B" fill-opacity="0.45"/>
</g>
<path fill-rule="evenodd" clip-rule="evenodd" d="M17.5759 9.12905C16.6444 9.71322 15.3917 9.60679 14.5774 8.80976L12.3577 6.63736C11.4179 5.71751 11.4179 4.22616 12.3577 3.30633C13.1557 2.52531 14.3747 2.40744 15.2997 2.95271C15.5058 1.85672 16.4871 1.02637 17.6665 1.02637C18.8142 1.02637 19.7743 1.81267 20.015 2.8649C20.9164 2.42325 22.042 2.5704 22.794 3.30633C23.7338 4.22616 23.7338 5.71751 22.794 6.63736L20.5744 8.80976C19.76 9.60679 18.5073 9.71322 17.5759 9.12905Z" fill="#ED653B"/>
<g style="mix-blend-mode:multiply">
<path fill-rule="evenodd" clip-rule="evenodd" d="M23.3853 5.68871C23.2723 5.34175 23.0753 5.01533 22.794 4.74006C22.042 4.00416 20.9164 3.85701 20.015 4.29863C19.7743 3.2464 18.8142 2.4601 17.6665 2.4601C16.4871 2.4601 15.5059 3.29047 15.2998 4.38645C14.3747 3.84118 13.1557 3.95906 12.3577 4.74006C12.0765 5.01533 11.8794 5.34175 11.7665 5.68871C11.502 4.87618 11.6991 3.95094 12.3577 3.30635C13.1557 2.52533 14.3747 2.40744 15.2998 2.95271C15.5059 1.85674 16.4871 1.02637 17.6665 1.02637C18.8142 1.02637 19.7743 1.8127 20.015 2.8649C20.9164 2.42327 22.042 2.57043 22.794 3.30635C23.4525 3.95094 23.6498 4.87618 23.3853 5.68871Z" fill="#ED653B" fill-opacity="0.5"/>
</g>
</g>
</svg>
