<svg width="43" height="43" viewBox="0 0 43 43" fill="none" xmlns="http://www.w3.org/2000/svg">
<path d="M18.8125 37.625C20.2968 37.625 21.5 36.4218 21.5 34.9375C21.5 33.4532 20.2968 32.25 18.8125 32.25C17.3282 32.25 16.125 33.4532 16.125 34.9375C16.125 36.4218 17.3282 37.625 18.8125 37.625Z" fill="black"/>
<path d="M31.3541 37.625C32.8384 37.625 34.0416 36.4218 34.0416 34.9375C34.0416 33.4532 32.8384 32.25 31.3541 32.25C29.8699 32.25 28.6666 33.4532 28.6666 34.9375C28.6666 36.4218 29.8699 37.625 31.3541 37.625Z" fill="black"/>
<path d="M23.2917 23.2917H26.875V17.9346H32.2321V14.3513H26.875V9.01208H23.2917V14.3513H17.9346V17.9346H23.2917V23.2917Z" fill="black"/>
<path d="M17.9167 30.4583H32.25C32.611 30.4573 32.9631 30.3472 33.2605 30.1426C33.5578 29.938 33.7864 29.6484 33.9163 29.3117L38.9867 16.125H35.1525L31.0138 26.875H19.1171L11.0725 7.57876C10.7998 6.92491 10.3393 6.36659 9.74937 5.97434C9.15941 5.5821 8.46641 5.37353 7.75796 5.37501H3.58337V8.95834H7.75796L16.2684 29.3475C16.4028 29.6747 16.631 29.9548 16.9244 30.1525C17.2177 30.3501 17.563 30.4566 17.9167 30.4583Z" fill="black"/>
</svg>
