<svg width="43" height="43" viewBox="0 0 43 43" fill="none" xmlns="http://www.w3.org/2000/svg">
<g clip-path="url(#clip0_114_1988)">
<path d="M15.9219 38.2222C17.4061 38.2222 18.6094 37.0189 18.6094 35.5347C18.6094 34.0504 17.4061 32.8472 15.9219 32.8472C14.4376 32.8472 13.2344 34.0504 13.2344 35.5347C13.2344 37.0189 14.4376 38.2222 15.9219 38.2222Z" fill="#3F3F3F"/>
<path d="M32.25 38.2222C33.7343 38.2222 34.9375 37.0189 34.9375 35.5347C34.9375 34.0504 33.7343 32.8472 32.25 32.8472C30.7657 32.8472 29.5625 34.0504 29.5625 35.5347C29.5625 37.0189 30.7657 38.2222 32.25 38.2222Z" fill="#3F3F3F"/>
<path d="M39.5125 6.4143C39.4013 6.27728 39.2612 6.16659 39.1022 6.09017C38.9431 6.01376 38.7692 5.97352 38.5927 5.97236H13.7244L14.5008 8.36125H37.028L33.8389 22.6946H15.9222L10.4636 5.41097C10.4045 5.22757 10.302 5.06118 10.1647 4.92599C10.0275 4.79079 9.85952 4.69082 9.67524 4.63458L4.77802 3.12958C4.62744 3.08331 4.46922 3.06715 4.31239 3.08202C4.15556 3.0969 4.0032 3.14251 3.864 3.21627C3.58288 3.36523 3.37245 3.61977 3.27899 3.92388C3.18554 4.228 3.21673 4.55678 3.36569 4.8379C3.51465 5.11903 3.76918 5.32946 4.0733 5.42291L8.36136 6.7368L13.8439 24.0562L11.885 25.6568L11.7297 25.8121C11.2451 26.3705 10.9705 27.0804 10.9531 27.8195C10.9356 28.5586 11.1765 29.2806 11.6341 29.8612C11.9597 30.2572 12.3734 30.5714 12.8421 30.7788C13.3109 30.9862 13.8216 31.081 14.3336 31.0557H34.2689C34.5856 31.0557 34.8895 30.9298 35.1135 30.7058C35.3375 30.4818 35.4633 30.178 35.4633 29.8612C35.4633 29.5445 35.3375 29.2406 35.1135 29.0166C34.8895 28.7926 34.5856 28.6668 34.2689 28.6668H14.1425C14.0049 28.6621 13.8709 28.622 13.7534 28.5504C13.6359 28.4788 13.5388 28.3781 13.4715 28.258C13.4043 28.1379 13.3692 28.0025 13.3695 27.8649C13.3699 27.7273 13.4057 27.5921 13.4736 27.4724L16.3522 25.0835H34.7944C35.0705 25.0902 35.3404 25.0011 35.5582 24.8312C35.776 24.6613 35.9282 24.4212 35.9889 24.1518L39.7752 7.42958C39.8116 7.25151 39.8068 7.0675 39.7612 6.89156C39.7157 6.71562 39.6306 6.55239 39.5125 6.4143V6.4143Z" fill="#3F3F3F"/>
</g>
<defs>
<clipPath id="clip0_114_1988">
<rect width="43" height="43" fill="white"/>
</clipPath>
</defs>
</svg>
