<svg width="43" height="43" viewBox="0 0 43 43" fill="none" xmlns="http://www.w3.org/2000/svg">
<g clip-path="url(#clip0_84_975)">
<path d="M15.9219 38.2222C17.4061 38.2222 18.6094 37.0189 18.6094 35.5347C18.6094 34.0504 17.4061 32.8472 15.9219 32.8472C14.4376 32.8472 13.2344 34.0504 13.2344 35.5347C13.2344 37.0189 14.4376 38.2222 15.9219 38.2222Z" fill="#3F3F3F"/>
<path d="M32.25 38.2222C33.7343 38.2222 34.9375 37.0189 34.9375 35.5347C34.9375 34.0504 33.7343 32.8472 32.25 32.8472C30.7657 32.8472 29.5625 34.0504 29.5625 35.5347C29.5625 37.0189 30.7657 38.2222 32.25 38.2222Z" fill="#3F3F3F"/>
<path d="M39.5125 6.41406C39.4013 6.27704 39.2612 6.16634 39.1022 6.08993C38.9431 6.01352 38.7692 5.97328 38.5927 5.97211H13.7244L14.5008 8.361H37.028L33.8389 22.6943H15.9222L10.4636 5.41072C10.4045 5.22733 10.302 5.06093 10.1647 4.92574C10.0275 4.79055 9.85952 4.69057 9.67524 4.63433L4.77802 3.12933C4.62744 3.08306 4.46922 3.0669 4.31239 3.08178C4.15556 3.09665 4.0032 3.14227 3.864 3.21603C3.58288 3.36499 3.37245 3.61952 3.27899 3.92364C3.18554 4.22775 3.21673 4.55654 3.36569 4.83766C3.51465 5.11878 3.76918 5.32922 4.0733 5.42267L8.36136 6.73656L13.8439 24.056L11.885 25.6566L11.7297 25.8118C11.2451 26.3702 10.9705 27.0801 10.9531 27.8192C10.9356 28.5583 11.1765 29.2804 11.6341 29.861C11.9597 30.2569 12.3734 30.5711 12.8421 30.7785C13.3109 30.986 13.8216 31.0808 14.3336 31.0554H34.2689C34.5856 31.0554 34.8895 30.9296 35.1135 30.7056C35.3375 30.4816 35.4633 30.1778 35.4633 29.861C35.4633 29.5442 35.3375 29.2404 35.1135 29.0164C34.8895 28.7924 34.5856 28.6666 34.2689 28.6666H14.1425C14.0049 28.6619 13.8709 28.6218 13.7534 28.5502C13.6359 28.4786 13.5388 28.3778 13.4715 28.2578C13.4043 28.1377 13.3692 28.0023 13.3695 27.8647C13.3699 27.727 13.4057 27.5918 13.4736 27.4721L16.3522 25.0832H34.7944C35.0705 25.09 35.3404 25.0008 35.5582 24.831C35.776 24.6611 35.9282 24.421 35.9889 24.1516L39.7752 7.42933C39.8116 7.25126 39.8068 7.06725 39.7612 6.89131C39.7157 6.71537 39.6306 6.55214 39.5125 6.41406V6.41406Z" fill="#3F3F3F"/>
</g>
<defs>
<clipPath id="clip0_84_975">
<rect width="43" height="43" fill="white"/>
</clipPath>
</defs>
</svg>
