<svg width="43" height="43" viewBox="0 0 43 43" fill="none" xmlns="http://www.w3.org/2000/svg">
<g clip-path="url(#clip0_76_305)">
<path d="M15.922 38.2222C17.4063 38.2222 18.6095 37.0189 18.6095 35.5347C18.6095 34.0504 17.4063 32.8472 15.922 32.8472C14.4377 32.8472 13.2345 34.0504 13.2345 35.5347C13.2345 37.0189 14.4377 38.2222 15.922 38.2222Z" fill="#3F3F3F"/>
<path d="M32.25 38.2222C33.7343 38.2222 34.9375 37.0189 34.9375 35.5347C34.9375 34.0504 33.7343 32.8472 32.25 32.8472C30.7657 32.8472 29.5625 34.0504 29.5625 35.5347C29.5625 37.0189 30.7657 38.2222 32.25 38.2222Z" fill="#3F3F3F"/>
<path d="M39.5122 6.41406C39.4011 6.27704 39.261 6.16634 39.1019 6.08993C38.9429 6.01352 38.7689 5.97328 38.5925 5.97211H13.7242L14.5006 8.361H37.0278L33.8386 22.6943H15.9219L10.4633 5.41072C10.4043 5.22733 10.3018 5.06093 10.1645 4.92574C10.0272 4.79055 9.85928 4.69057 9.675 4.63433L4.77778 3.12933C4.6272 3.08306 4.46897 3.0669 4.31215 3.08178C4.15532 3.09665 4.00296 3.14227 3.86376 3.21603C3.58264 3.36499 3.3722 3.61952 3.27875 3.92364C3.1853 4.22775 3.21648 4.55654 3.36544 4.83766C3.5144 5.11878 3.76894 5.32922 4.07306 5.42267L8.36111 6.73656L13.8436 24.056L11.8847 25.6566L11.7294 25.8118C11.2449 26.3702 10.9703 27.0801 10.9528 27.8192C10.9354 28.5583 11.1762 29.2804 11.6339 29.861C11.9594 30.2569 12.3731 30.5711 12.8419 30.7785C13.3106 30.986 13.8214 31.0808 14.3333 31.0554H34.2686C34.5854 31.0554 34.8892 30.9296 35.1132 30.7056C35.3372 30.4816 35.4631 30.1778 35.4631 29.861C35.4631 29.5442 35.3372 29.2404 35.1132 29.0164C34.8892 28.7924 34.5854 28.6666 34.2686 28.6666H14.1422C14.0047 28.6619 13.8707 28.6218 13.7531 28.5502C13.6356 28.4786 13.5385 28.3778 13.4713 28.2578C13.4041 28.1377 13.3689 28.0023 13.3693 27.8647C13.3696 27.727 13.4055 27.5918 13.4733 27.4721L16.3519 25.0832H34.7942C35.0703 25.09 35.3402 25.0008 35.558 24.831C35.7757 24.6611 35.9279 24.421 35.9886 24.1516L39.775 7.42933C39.8113 7.25126 39.8065 7.06725 39.761 6.89131C39.7155 6.71537 39.6304 6.55214 39.5122 6.41406V6.41406Z" fill="#3F3F3F"/>
</g>
<defs>
<clipPath id="clip0_76_305">
<rect width="43" height="43" fill="white"/>
</clipPath>
</defs>
</svg>
