<svg width="37" height="28" viewBox="0 0 37 28" fill="none" xmlns="http://www.w3.org/2000/svg">
<path d="M36.2865 3.33764C36.1754 3.20062 36.0352 3.08993 35.8762 3.01351C35.7172 2.9371 35.5432 2.89686 35.3668 2.8957H10.4985L11.2748 5.28459H33.8021L30.6129 19.6179H12.6962L7.23763 2.33431C7.17858 2.15091 7.07605 1.98452 6.93878 1.84933C6.80151 1.71413 6.63357 1.61415 6.44929 1.55792L1.55207 0.0529178C1.40149 0.00664505 1.24327 -0.00951508 1.08644 0.00535989C0.92961 0.0202349 0.777247 0.0658537 0.638049 0.139612C0.356927 0.288573 0.146494 0.543109 0.0530416 0.847224C-0.0404104 1.15134 -0.00922556 1.48012 0.139736 1.76124C0.288697 2.04237 0.543233 2.2528 0.847347 2.34625L5.1354 3.66014L10.6179 20.9796L8.65901 22.5801L8.50374 22.7354C8.01919 23.2938 7.74455 24.0037 7.72711 24.7428C7.70966 25.4819 7.95052 26.204 8.40818 26.7846C8.73374 27.1805 9.14743 27.4947 9.61617 27.7021C10.0849 27.9095 10.5957 28.0044 11.1076 27.979H31.0429C31.3597 27.979 31.6635 27.8532 31.8875 27.6292C32.1115 27.4052 32.2374 27.1014 32.2374 26.7846C32.2374 26.4678 32.1115 26.164 31.8875 25.94C31.6635 25.716 31.3597 25.5901 31.0429 25.5901H10.9165C10.779 25.5854 10.645 25.5454 10.5274 25.4737C10.4099 25.4021 10.3128 25.3014 10.2456 25.1813C10.1783 25.0613 10.1432 24.9259 10.1436 24.7883C10.1439 24.6506 10.1798 24.5154 10.2476 24.3957L13.1262 22.0068H31.5685C31.8446 22.0136 32.1145 21.9244 32.3323 21.7545C32.55 21.5847 32.7022 21.3446 32.7629 21.0751L36.5493 4.35292C36.5856 4.17485 36.5808 3.99084 36.5353 3.8149C36.4898 3.63896 36.4047 3.47573 36.2865 3.33764V3.33764Z" fill="#3F3F3F"/>
</svg>
