<svg width="21" height="23" viewBox="0 0 21 23" fill="none" xmlns="http://www.w3.org/2000/svg">
<mask id="path-1-inside-1_1_84" fill="white">
<path d="M13.2969 9.87556e-07C11.8136 -0.000762136 10.3617 0.440762 9.11576 1.27147C7.86984 2.10219 6.88294 3.28671 6.27377 4.6826C5.6646 6.07848 5.45909 7.62628 5.68195 9.13986C5.90481 10.6534 6.54655 12.0683 7.53 13.2144L-0.000488281 22.0369L1.04464 23L8.55647 14.2161C9.52271 14.9962 10.6556 15.5267 11.8607 15.7634C13.0657 16.0001 14.3082 15.9362 15.4845 15.577C16.6608 15.2178 17.737 14.5736 18.6233 13.6982C19.5096 12.8228 20.1804 11.7415 20.5799 10.5444C20.9793 9.34722 21.0959 8.06888 20.9198 6.81583C20.7437 5.56278 20.2801 4.37129 19.5675 3.34062C18.855 2.30994 17.9142 1.46992 16.8234 0.890513C15.7327 0.311107 14.5236 0.00909511 13.2969 0.00963248V9.87556e-07ZM13.2969 14.4472C11.6263 14.4472 10.0242 13.7623 8.84297 12.5431C7.66173 11.3238 6.99811 9.67022 6.99811 7.94598C6.99811 6.22174 7.66173 4.56812 8.84297 3.3489C10.0242 2.12968 11.6263 1.44472 13.2969 1.44472C14.9674 1.44472 16.5695 2.12968 17.7507 3.3489C18.932 4.56812 19.5956 6.22174 19.5956 7.94598C19.5956 9.67022 18.932 11.3238 17.7507 12.5431C16.5695 13.7623 14.9674 14.4472 13.2969 14.4472Z"/>
</mask>
<path d="M13.2969 9.87556e-07C11.8136 -0.000762136 10.3617 0.440762 9.11576 1.27147C7.86984 2.10219 6.88294 3.28671 6.27377 4.6826C5.6646 6.07848 5.45909 7.62628 5.68195 9.13986C5.90481 10.6534 6.54655 12.0683 7.53 13.2144L-0.000488281 22.0369L1.04464 23L8.55647 14.2161C9.52271 14.9962 10.6556 15.5267 11.8607 15.7634C13.0657 16.0001 14.3082 15.9362 15.4845 15.577C16.6608 15.2178 17.737 14.5736 18.6233 13.6982C19.5096 12.8228 20.1804 11.7415 20.5799 10.5444C20.9793 9.34722 21.0959 8.06888 20.9198 6.81583C20.7437 5.56278 20.2801 4.37129 19.5675 3.34062C18.855 2.30994 17.9142 1.46992 16.8234 0.890513C15.7327 0.311107 14.5236 0.00909511 13.2969 0.00963248V9.87556e-07ZM13.2969 14.4472C11.6263 14.4472 10.0242 13.7623 8.84297 12.5431C7.66173 11.3238 6.99811 9.67022 6.99811 7.94598C6.99811 6.22174 7.66173 4.56812 8.84297 3.3489C10.0242 2.12968 11.6263 1.44472 13.2969 1.44472C14.9674 1.44472 16.5695 2.12968 17.7507 3.3489C18.932 4.56812 19.5956 6.22174 19.5956 7.94598C19.5956 9.67022 18.932 11.3238 17.7507 12.5431C16.5695 13.7623 14.9674 14.4472 13.2969 14.4472Z" fill="black"/>
<path d="M13.2969 9.87556e-07H339.297V-325.832L13.4646 -326L13.2969 9.87556e-07ZM7.53 13.2144L255.486 224.86L436.619 12.6507L254.929 -199.082L7.53 13.2144ZM-0.000488281 22.0369L-247.956 -189.609L-451.699 49.089L-220.924 261.763L-0.000488281 22.0369ZM1.04464 23L-219.879 262.727L28.9129 492.004L248.802 234.877L1.04464 23ZM8.55647 14.2161L213.341 -239.436L-33.2345 -438.508L-239.201 -197.661L8.55647 14.2161ZM11.8607 15.7634L-50.9757 335.65L11.8607 15.7634ZM13.2969 0.00963248H-312.703V326.152L13.4397 326.01L13.2969 0.00963248ZM13.2969 14.4472V340.447V14.4472ZM13.2969 1.44472V-324.555V1.44472ZM13.4646 -326C-53.0965 -326.034 -117.43 -306.172 -171.731 -269.967L189.963 272.51C138.154 307.053 76.7237 326.033 13.1291 326L13.4646 -326ZM-171.731 -269.967C-225.912 -233.843 -267.357 -183.354 -292.513 -125.71L305.061 135.075C281.123 189.927 241.651 238.047 189.963 272.51L-171.731 -269.967ZM-292.513 -125.71C-317.637 -68.1415 -325.906 -4.94278 -316.841 56.6284L328.205 -38.3487C336.825 20.1954 328.966 80.2984 305.061 135.075L-292.513 -125.71ZM-316.841 56.6284C-307.771 118.229 -281.509 176.985 -239.869 225.511L254.929 -199.082C294.602 -152.849 319.58 -96.9217 328.205 -38.3487L-316.841 56.6284ZM-240.426 -198.431L-247.956 -189.609L247.956 233.682L255.486 224.86L-240.426 -198.431ZM-220.924 261.763L-219.879 262.727L221.968 -216.727L220.923 -217.69L-220.924 261.763ZM248.802 234.877L256.314 226.094L-239.201 -197.661L-246.713 -188.877L248.802 234.877ZM-196.228 267.868C-154.513 301.547 -104.779 325.081 -50.9757 335.65L74.697 -304.123C126.09 -294.028 173.558 -271.555 213.341 -239.436L-196.228 267.868ZM-50.9757 335.65C2.85985 346.225 58.3829 343.339 110.698 327.363L-79.7287 -296.209C-29.7665 -311.466 23.2716 -314.225 74.697 -304.123L-50.9757 335.65ZM110.698 327.363C162.968 311.401 209.812 283.067 247.708 245.639L-210.461 -218.242C-174.338 -253.92 -129.646 -280.965 -79.7287 -296.209L110.698 327.363ZM247.708 245.639C285.556 208.257 313.416 162.889 329.819 113.731L-288.659 -92.6419C-273.055 -139.406 -246.537 -182.611 -210.461 -218.242L247.708 245.639ZM329.819 113.731C346.212 64.601 350.917 12.4679 343.748 -38.5508L-301.908 52.1825C-308.726 3.66982 -304.253 -45.9065 -288.659 -92.6419L329.819 113.731ZM343.748 -38.5508C336.576 -89.5824 317.614 -138.811 287.725 -182.045L-248.589 188.726C-277.054 147.553 -295.089 100.708 -301.908 52.1825L343.748 -38.5508ZM287.725 -182.045C257.804 -225.324 217.592 -261.601 169.757 -287.011L-136.11 288.792C-181.764 264.541 -220.094 229.944 -248.589 188.726L287.725 -182.045ZM169.757 -287.011C121.865 -312.452 68.1345 -326.014 13.154 -325.99L13.4397 326.01C-39.0873 326.033 -90.3993 313.074 -136.11 288.792L169.757 -287.011ZM339.297 0.00963248V9.87556e-07H-312.703V0.00963248H339.297ZM13.2969 -311.553C101.476 -311.553 183.875 -275.301 242.978 -214.298L-225.292 239.384C-163.826 302.826 -78.223 340.447 13.2969 340.447V-311.553ZM242.978 -214.298C301.741 -153.646 332.998 -73.5201 332.998 7.94598H-319.002C-319.002 92.8605 -286.417 176.293 -225.292 239.384L242.978 -214.298ZM332.998 7.94598C332.998 89.4121 301.741 169.538 242.978 230.19L-225.292 -223.492C-286.417 -160.401 -319.002 -76.9686 -319.002 7.94598H332.998ZM242.978 230.19C183.875 291.193 101.476 327.445 13.2969 327.445V-324.555C-78.223 -324.555 -163.826 -286.934 -225.292 -223.492L242.978 230.19ZM13.2969 327.445C-74.882 327.445 -157.281 291.193 -216.384 230.19L251.885 -223.492C190.42 -286.934 104.817 -324.555 13.2969 -324.555V327.445ZM-216.384 230.19C-275.147 169.538 -306.404 89.4122 -306.404 7.94598H345.596C345.596 -76.9687 313.011 -160.401 251.885 -223.492L-216.384 230.19ZM-306.404 7.94598C-306.404 -73.5202 -275.147 -153.646 -216.384 -214.298L251.885 239.384C313.011 176.293 345.596 92.8606 345.596 7.94598H-306.404ZM-216.384 -214.298C-157.281 -275.301 -74.882 -311.553 13.2969 -311.553V340.447C104.817 340.447 190.42 302.826 251.885 239.384L-216.384 -214.298Z" fill="black" mask="url(#path-1-inside-1_1_84)"/>
</svg>
