<svg width="38" height="28" viewBox="0 0 38 28" fill="none" xmlns="http://www.w3.org/2000/svg">
<path d="M36.9531 3.33764C36.842 3.20062 36.7019 3.08993 36.5429 3.01351C36.3838 2.9371 36.2098 2.89686 36.0334 2.8957H11.1651L11.9415 5.28459H34.4687L31.2795 19.6179H13.3629L7.90425 2.33431C7.84521 2.15091 7.74268 1.98452 7.60541 1.84933C7.46813 1.71413 7.3002 1.61415 7.11592 1.55792L2.2187 0.0529178C2.06811 0.00664505 1.90989 -0.00951508 1.75306 0.00535989C1.59624 0.0202349 1.44387 0.0658537 1.30468 0.139612C1.02355 0.288573 0.81312 0.543109 0.719668 0.847224C0.626216 1.15134 0.6574 1.48012 0.806362 1.76124C0.955323 2.04237 1.20986 2.2528 1.51397 2.34625L5.80203 3.66014L11.2845 20.9796L9.32564 22.5801L9.17036 22.7354C8.68582 23.2938 8.41117 24.0037 8.39373 24.7428C8.37629 25.4819 8.61714 26.204 9.07481 26.7846C9.40036 27.1805 9.81406 27.4947 10.2828 27.7021C10.7515 27.9095 11.2623 28.0044 11.7743 27.979H31.7095C32.0263 27.979 32.3301 27.8532 32.5541 27.6292C32.7781 27.4052 32.904 27.1014 32.904 26.7846C32.904 26.4678 32.7781 26.164 32.5541 25.94C32.3301 25.716 32.0263 25.5901 31.7095 25.5901H11.5831C11.4456 25.5854 11.3116 25.5454 11.1941 25.4737C11.0765 25.4021 10.9795 25.3014 10.9122 25.1813C10.845 25.0613 10.8098 24.9259 10.8102 24.7883C10.8105 24.6506 10.8464 24.5154 10.9143 24.3957L13.7929 22.0068H32.2351C32.5112 22.0136 32.7811 21.9244 32.9989 21.7545C33.2167 21.5847 33.3689 21.3446 33.4295 21.0751L37.2159 4.35292C37.2522 4.17485 37.2475 3.99084 37.2019 3.8149C37.1564 3.63896 37.0713 3.47573 36.9531 3.33764V3.33764Z" fill="#3F3F3F"/>
</svg>
