<svg width="20" height="24" viewBox="0 0 20 24" fill="none" xmlns="http://www.w3.org/2000/svg">
<path d="M9.98428 0C6.67588 0 3.98428 2.6916 3.98428 6V9.6H2.78428C1.46068 9.6 0.384277 10.6764 0.384277 12V21.6C0.384277 22.9236 1.46068 24 2.78428 24H17.1843C18.5079 24 19.5843 22.9236 19.5843 21.6V12C19.5843 10.6764 18.5079 9.6 17.1843 9.6H15.9843V6C15.9843 2.6916 13.2927 0 9.98428 0ZM17.1843 12L17.1867 21.6H2.78428V12H17.1843ZM6.38428 9.6V6C6.38428 4.0152 7.99948 2.4 9.98428 2.4C11.9691 2.4 13.5843 4.0152 13.5843 6V9.6H6.38428Z" fill="#F72D57"/>
</svg>
