<svg width="37" height="28" viewBox="0 0 37 28" fill="none" xmlns="http://www.w3.org/2000/svg">
<path d="M36.2864 3.33764C36.1752 3.20062 36.0351 3.08993 35.8761 3.01351C35.7171 2.9371 35.5431 2.89686 35.3667 2.8957H10.4983L11.2747 5.28459H33.802L30.6128 19.6179H12.6961L7.2375 2.33431C7.17846 2.15091 7.07593 1.98452 6.93866 1.84933C6.80139 1.71413 6.63345 1.61415 6.44917 1.55792L1.55195 0.0529178C1.40137 0.00664505 1.24314 -0.00951508 1.08632 0.00535989C0.929488 0.0202349 0.777125 0.0658537 0.637927 0.139612C0.356805 0.288573 0.146372 0.543109 0.0529195 0.847224C-0.0405325 1.15134 -0.00934763 1.48012 0.139614 1.76124C0.288575 2.04237 0.54311 2.2528 0.847225 2.34625L5.13528 3.66014L10.6178 20.9796L8.65889 22.5801L8.50361 22.7354C8.01907 23.2938 7.74443 24.0037 7.72698 24.7428C7.70954 25.4819 7.9504 26.204 8.40806 26.7846C8.73362 27.1805 9.14731 27.4947 9.61605 27.7021C10.0848 27.9095 10.5956 28.0044 11.1075 27.979H31.0428C31.3596 27.979 31.6634 27.8532 31.8874 27.6292C32.1114 27.4052 32.2372 27.1014 32.2372 26.7846C32.2372 26.4678 32.1114 26.164 31.8874 25.94C31.6634 25.716 31.3596 25.5901 31.0428 25.5901H10.9164C10.7788 25.5854 10.6448 25.5454 10.5273 25.4737C10.4098 25.4021 10.3127 25.3014 10.2455 25.1813C10.1782 25.0613 10.1431 24.9259 10.1434 24.7883C10.1438 24.6506 10.1796 24.5154 10.2475 24.3957L13.1261 22.0068H31.5683C31.8444 22.0136 32.1144 21.9244 32.3321 21.7545C32.5499 21.5847 32.7021 21.3446 32.7628 21.0751L36.5492 4.35292C36.5855 4.17485 36.5807 3.99084 36.5352 3.8149C36.4896 3.63896 36.4046 3.47573 36.2864 3.33764V3.33764Z" fill="#3F3F3F"/>
</svg>
