<svg width="20" height="24" viewBox="0 0 20 24" fill="none" xmlns="http://www.w3.org/2000/svg">
<path d="M16.4611 16.6154V16.8202L16.6047 16.9661L18.8841 19.2817V19.8077H0.499512V19.2817L2.77891 16.9661L2.92259 16.8202V16.6154V10.4615C2.92259 6.83943 4.79454 3.93869 7.99152 3.16919L8.37451 3.07701V2.68308V1.84615C8.37451 1.0933 8.96978 0.5 9.69182 0.5C10.4139 0.5 11.0091 1.0933 11.0091 1.84615V2.68308V3.07669L11.3917 3.1691C14.5773 3.93853 16.4611 6.85219 16.4611 10.4615V16.6154ZM11.5512 22.0385C11.332 22.8806 10.5738 23.5 9.69182 23.5C9.18435 23.5 8.69605 23.2953 8.33477 22.9283C8.09106 22.6807 7.91872 22.3729 7.83226 22.0385H11.5512Z" stroke="#F72D57"/>
</svg>
